Coordinates
version=1
nRows=11
nColumns=40
inDegrees=yes

Units are S.I. units (second, meters, Newtons, ...)
If the header above contains a line with 'inDegrees', this indicates whether rotational values are in degrees (yes) or radians (no).

endheader
time	pelvis_tilt	pelvis_list	pelvis_rotation	pelvis_tx	pelvis_ty	pelvis_tz	hip_flexion_r	hip_adduction_r	hip_rotation_r	knee_angle_r	knee_angle_r_beta	ankle_angle_r	subtalar_angle_r	mtp_angle_r	hip_flexion_l	hip_adduction_l	hip_rotation_l	knee_angle_l	knee_angle_l_beta	ankle_angle_l	subtalar_angle_l	mtp_angle_l	lumbar_extension	lumbar_bending	lumbar_rotation	arm_flex_r	arm_add_r	arm_rot_r	elbow_flex_r	pro_sup_r	wrist_flex_r	wrist_dev_r	arm_flex_l	arm_add_l	arm_rot_l	elbow_flex_l	pro_sup_l	wrist_flex_l	wrist_dev_l
      1.51000000	     -8.49492470	     -4.89798535	      0.84731464	      0.16750712	      0.43016993	     -1.21087135	     94.80080436	    -46.96082145	     13.56151857	    125.98149099	      2.19879181	     39.23706386	      5.98471426	      0.00000000	    111.04451649	    -44.98686753	     29.98997452	    125.72137175	      2.19425188	     38.86922059	     19.59744617	      0.00000000	    -35.37821213	      3.63035424	      0.37375697	     44.99256626	    -15.00021729	     44.99256626	     75.00017662	     45.00000026	      0.00000000	      0.00000000	     44.99256626	    -15.00021729	     44.99256626	     75.00017662	     45.00000026	      0.00000000	      0.00000000
      1.51500000	     -8.48690488	     -4.94622906	      0.85129128	      0.16751135	      0.42909849	     -1.21102474	     94.94316519	    -46.98247126	     13.68445488	    126.10904818	      2.20101811	     39.24085453	      6.06615816	      0.00000000	    111.29394797	    -44.91841880	     30.23235151	    125.86762802	      2.19680453	     38.87973324	     19.57813895	      0.00000000	    -35.39273344	      3.68539063	      0.40952103	     44.99270044	    -15.00021180	     44.99270044	     75.00017659	     45.00000026	      0.00000000	      0.00000000	     44.99270044	    -15.00021180	     44.99270044	     75.00017659	     45.00000026	      0.00000000	      0.00000000
      1.52000000	     -8.40876213	     -4.98324252	      0.85129314	      0.16750567	      0.42826437	     -1.21119593	     94.98477144	    -46.99602378	     13.79045516	    126.20540965	      2.20269993	     39.24757096	      6.09423012	      0.00000000	    111.43726008	    -44.88576489	     30.43150177	    126.01026870	      2.19929408	     38.89297155	     19.59468597	      0.00000000	    -35.50522198	      3.74115794	      0.44925484	     44.99282757	    -15.00020663	     44.99282757	     75.00017656	     45.00000026	      0.00000000	      0.00000000	     44.99282757	    -15.00020663	     44.99282757	     75.00017656	     45.00000026	      0.00000000	      0.00000000
      1.52500000	     -8.27711102	     -4.99887550	      0.85399189	      0.16745397	      0.42762981	     -1.21120495	     94.98370588	    -47.01254444	     13.87337007	    126.32093135	      2.20471617	     39.25209723	      6.05118989	      0.00000000	    111.46509385	    -44.87929574	     30.58633370	    126.09076868	      2.20069907	     38.90942769	     19.61640275	      0.00000000	    -35.71141741	      3.72157635	      0.50664086	     44.99295508	    -15.00020151	     44.99295508	     75.00017654	     45.00000026	      0.00000000	      0.00000000	     44.99295508	    -15.00020151	     44.99295508	     75.00017654	     45.00000026	      0.00000000	      0.00000000
      1.53000000	     -8.15341002	     -4.98798082	      0.84908321	      0.16744057	      0.42695199	     -1.21132502	     95.01679479	    -47.01001031	     14.04302583	    126.40794895	      2.20623491	     39.25496013	      6.06625782	      0.00000000	    111.48821490	    -44.88876448	     30.70369876	    126.22378202	      2.20302059	     38.92357236	     19.67476696	      0.00000000	    -35.87384497	      3.73324404	      0.54358742	     44.99308003	    -15.00019654	     44.99308003	     75.00017651	     45.00000026	      0.00000000	      0.00000000	     44.99308003	    -15.00019654	     44.99308003	     75.00017651	     45.00000026	      0.00000000	      0.00000000
      1.53500000	     -8.01976279	     -4.98538133	      0.84719266	      0.16740237	      0.42633092	     -1.21139679	     95.01873650	    -47.01628098	     14.16419968	    126.49162627	      2.20769535	     39.26505953	      6.02534376	      0.00000000	    111.51008074	    -44.89573952	     30.83167173	    126.33592208	      2.20497780	     38.92096288	     19.69647174	      0.00000000	    -36.07085382	      3.72325316	      0.58459053	     44.99320271	    -15.00019170	     44.99320271	     75.00017649	     45.00000026	      0.00000000	      0.00000000	     44.99320271	    -15.00019170	     44.99320271	     75.00017649	     45.00000026	      0.00000000	      0.00000000
      1.54000000	     -7.90124468	     -4.97626467	      0.85562590	      0.16736693	      0.42568038	     -1.21146820	     95.06907032	    -47.02755991	     14.33270710	    126.60490125	      2.20967238	     39.26968575	      6.06812660	      0.00000000	    111.50380890	    -44.88079272	     30.93570092	    126.44076138	      2.20680759	     38.95175648	     19.74371319	      0.00000000	    -36.23246737	      3.71906646	      0.61320569	     44.99332569	    -15.00018691	     44.99332569	     75.00017646	     45.00000026	      0.00000000	      0.00000000	     44.99332569	    -15.00018691	     44.99332569	     75.00017646	     45.00000026	      0.00000000	      0.00000000
      1.54500000	     -7.78356920	     -4.95377012	      0.86862731	      0.16732995	      0.42504821	     -1.21153967	     95.12627131	    -47.04405631	     14.51220045	    126.70375537	      2.21139771	     39.27367885	      6.08344415	      0.00000000	    111.49156080	    -44.86971480	     31.01379354	    126.54398083	      2.20860911	     38.96956119	     19.76558086	      0.00000000	    -36.39693232	      3.70271573	      0.63733025	     44.99344990	    -15.00018210	     44.99344990	     75.00017644	     45.00000026	      0.00000000	      0.00000000	     44.99344990	    -15.00018210	     44.99344990	     75.00017644	     45.00000026	      0.00000000	      0.00000000
      1.55000000	     -7.68650071	     -4.93449880	      0.89932884	      0.16732597	      0.42437601	     -1.21165398	     95.20890461	    -47.09329733	     14.69309923	    126.80556187	      2.21317456	     39.27123504	      6.15499036	      0.00000000	    111.49649523	    -44.83669636	     31.07822447	    126.64684723	      2.21040447	     38.98432977	     19.76894395	      0.00000000	    -36.52730078	      3.70156549	      0.64453404	     44.99357705	    -15.00017719	     44.99357705	     75.00017642	     45.00000026	      0.00000000	      0.00000000	     44.99357705	    -15.00017719	     44.99357705	     75.00017642	     45.00000026	      0.00000000	      0.00000000
      1.55500000	     -7.57700186	     -4.93153957	      0.91928189	      0.16729018	      0.42376198	     -1.21175234	     95.24217486	    -47.11877001	     14.83329569	    126.89752169	      2.21477957	     39.27622947	      6.16607167	      0.00000000	    111.50917865	    -44.80845008	     31.17672145	    126.74674776	      2.21214806	     38.99811224	     19.77979649	      0.00000000	    -36.68270078	      3.70168150	      0.64519525	     44.99370077	    -15.00017246	     44.99370077	     75.00017639	     45.00000026	      0.00000000	      0.00000000	     44.99370077	    -15.00017246	     44.99370077	     75.00017639	     45.00000026	      0.00000000	      0.00000000
      1.56000000	     -7.45355616	     -4.90613945	      0.93703829	      0.16723130	      0.42319877	     -1.21180628	     95.28014997	    -47.12695736	     15.01428173	    126.98657689	      2.21633387	     39.28704159	      6.17234230	      0.00000000	    111.47745374	    -44.79172178	     31.24513431	    126.83899311	      2.21375805	     39.01350638	     19.79136754	      0.00000000	    -36.85632199	      3.67850784	      0.64529748	     44.99382712	    -15.00016765	     44.99382712	     75.00017637	     45.00000026	      0.00000000	      0.00000000	     44.99382712	    -15.00016765	     44.99382712	     75.00017637	     45.00000026	      0.00000000	      0.00000000
